<svg width="64" height="64" viewBox="0 0 64 64" fill="none" xmlns="http://www.w3.org/2000/svg">
  <path d="M32 8L44 20L32 52L20 20L32 8Z" fill="#00BCD4" stroke="#0097A7" stroke-width="2"/>
  <path d="M32 8L38 14L32 20L26 14L32 8Z" fill="#4DD0E1"/>
  <path d="M20 20L32 20L26 14L20 20Z" fill="#26C6DA"/>
  <path d="M44 20L32 20L38 14L44 20Z" fill="#26C6DA"/>
  <path d="M32 20L20 20L32 52L32 20Z" fill="#00ACC1"/>
  <path d="M32 20L44 20L32 52L32 20Z" fill="#00ACC1"/>
  <circle cx="28" cy="16" r="1" fill="#E1F5FE"/>
  <circle cx="36" cy="24" r="1" fill="#E1F5FE"/>
</svg>