<svg width="64" height="64" viewBox="0 0 64 64" fill="none" xmlns="http://www.w3.org/2000/svg">
  <path d="M32 8L36 20L32 56L28 20L32 8Z" fill="#607D8B" stroke="#455A64" stroke-width="2"/>
  <path d="M32 8L28 20L24 16L32 8Z" fill="#FF5722"/>
  <path d="M32 8L36 20L40 16L32 8Z" fill="#FF5722"/>
  <circle cx="32" cy="24" r="3" fill="#1976D2"/>
  <circle cx="32" cy="32" r="2" fill="#F44336"/>
  <circle cx="32" cy="40" r="2" fill="#4CAF50"/>
  <path d="M24 56L32 56L28 60L24 56Z" fill="#FF9800"/>
  <path d="M32 56L40 56L36 60L32 56Z" fill="#FF9800"/>
  <path d="M28 56L32 56L30 64L28 56Z" fill="#FF6B00"/>
  <path d="M32 56L36 56L34 64L32 56Z" fill="#FF6B00"/>
</svg>