<svg width="64" height="64" viewBox="0 0 64 64" fill="none" xmlns="http://www.w3.org/2000/svg">
  <path d="M32 8C36 8 40 12 40 16C40 20 36 24 32 24C28 24 24 20 24 16C24 12 28 8 32 8Z" fill="#FF4081"/>
  <path d="M32 16C36 16 40 20 40 24C40 28 36 32 32 32C28 32 24 28 24 24C24 20 28 16 32 16Z" fill="#E91E63"/>
  <path d="M32 24C36 24 40 28 40 32C40 36 36 40 32 40C28 40 24 36 24 32C24 28 28 24 32 24Z" fill="#C2185B"/>
  <rect x="30" y="40" width="4" height="16" fill="#4CAF50"/>
  <path d="M26 44C26 44 22 42 20 46C18 50 22 52 26 50" fill="#4CAF50"/>
  <path d="M38 48C38 48 42 46 44 50C46 54 42 56 38 54" fill="#4CAF50"/>
</svg>